<?xml version="1.0" encoding="utf-8"?>
<!-- Generator: Adobe Illustrator 24.0.1, SVG Export Plug-In . SVG Version: 6.00 Build 0)  -->
<svg version="1.1" id="По_умолчанию" xmlns="http://www.w3.org/2000/svg" xmlns:xlink="http://www.w3.org/1999/xlink"
	 x="0px" y="0px" viewBox="0 0 130.42 130.42" style="enable-background:new 0 0 130.42 130.42;" xml:space="preserve">
<style type="text/css">
	.st0{fill:none;stroke:#000000;stroke-linecap:round;stroke-linejoin:round;}
</style>
<g id="XMLID_1_">
	<g>
		<g id="XMLID_2_">
			<g>
				<path d="M54.91,76.07h41.72c0.03,0,0.07,0,0.1-0.01c4.43-0.25,7.93-4.04,7.81-8.49c-0.06-2.17-0.95-4.21-2.5-5.73
					c-0.77-0.76-1.67-1.35-2.66-1.76c-0.52-0.22-1.04-0.37-1.58-0.48c-0.5-0.1-1.06-0.15-1.5-0.16c-0.01,0-0.02,0-0.03,0h-0.03
					H54.91c-0.28,0-0.5,0.23-0.5,0.5v15.63C54.41,75.85,54.63,76.07,54.91,76.07z M39.34,45.16c0.27,0,0.5-0.23,0.5-0.5v-5.24
					c0-0.01,0-0.03,0-0.04c0-0.74,0.29-1.45,0.84-2.12c0.49-0.58,1.16-1.09,1.99-1.5c1.44-0.72,3.23-1.07,5.04-1.01
					c1.87,0.07,3.6,0.58,4.89,1.44c0.77,0.51,1.33,1.11,1.66,1.78c0.35,0.72,0.42,1.48,0.19,2.22c-0.01,0.02-0.01,0.03-0.01,0.04
					c-0.02,0.05-0.03,0.1-0.03,0.16v4.27c0,0.27,0.22,0.5,0.5,0.5h37.68h0.02h2.13c5.35,0.26,10.5,2.42,14.43,6.08
					c4.44,4.15,7.08,10.01,7.22,16.09s-2.22,12.06-6.47,16.41s-10.17,6.85-16.26,6.85H54.91c-0.28,0-0.5,0.22-0.5,0.5v17.76v0.36
					c-0.02,1.86-0.73,3.59-2.01,4.94c-1.37,1.43-3.21,2.23-5.18,2.25c-1.96,0.04-3.84-0.73-5.24-2.12c-1.37-1.37-2.13-3.18-2.14-5.1
					v-0.12V91.09c0-0.28-0.23-0.5-0.5-0.5H21.5h-0.26c-0.87,0-1.79-0.17-2.63-0.5c-0.91-0.36-1.73-0.9-2.44-1.59
					c-1.4-1.38-2.2-3.29-2.18-5.26c0.01-2,0.83-3.85,2.28-5.22c1.3-1.22,2.96-1.9,4.72-1.95h0.64h0.05h17.66
					c0.27,0,0.5-0.22,0.5-0.5v-15.5v-0.01c0-0.01,0-0.03,0-0.05c0-0.01,0-0.02-0.01-0.03c0-0.01,0-0.01,0-0.01
					c-0.01-0.04-0.02-0.08-0.04-0.12c-0.03-0.05-0.06-0.1-0.1-0.13c-0.01-0.02-0.03-0.03-0.04-0.04c-0.04-0.03-0.08-0.05-0.12-0.07
					c-0.01-0.01-0.02-0.01-0.04-0.01c-0.05-0.02-0.1-0.03-0.15-0.03c-0.02,0-0.04,0-0.06,0c-6.24,0.72-12.58-1.19-17.38-5.24
					c-4.81-4.06-7.76-9.98-8.1-16.26c-0.34-6.27,1.95-12.48,6.29-17.03c4.28-4.48,10.24-7.06,16.42-7.1c0.05,0,0.1,0,0.15,0
					s0.12,0.01,0.15,0h69.82c0.03,0,0.06,0,0.09,0c3.76,0.08,6.85,2.91,7.21,6.65c0.36,3.77-2.16,7.15-5.87,7.88H36.52h-0.07
					c-0.01,0-0.02,0-0.03,0c-1.01,0.01-2.12,0.23-3.1,0.64c-1.01,0.42-1.92,1.03-2.69,1.81c-1.57,1.58-2.43,3.67-2.44,5.9
					c0,2.22,0.86,4.32,2.43,5.89c1.53,1.55,3.66,2.44,5.83,2.45h0.01h0.02H39.34z"/>
				<path d="M108.21,29.46c0.07-0.01,0.15-0.03,0.22-0.05c-0.07,0.04-0.15,0.06-0.24,0.06h-0.07
					C108.15,29.47,108.18,29.47,108.21,29.46z"/>
				<path d="M108.19,28.47c0.28,0,0.5,0.23,0.5,0.5c0,0.19-0.1,0.36-0.26,0.44c-0.07,0.02-0.15,0.04-0.22,0.05
					c-0.03,0.01-0.06,0.01-0.09,0.01c-0.24,0-0.45-0.16-0.49-0.4c-0.06-0.27,0.12-0.54,0.39-0.59c0.01,0,0.03-0.01,0.04-0.01H108.19
					z"/>
				<path d="M108.12,29.47H36.51c0.28,0,0.5-0.22,0.5-0.49c0-0.28-0.22-0.51-0.49-0.51h71.54c-0.01,0-0.03,0.01-0.04,0.01
					c-0.27,0.05-0.45,0.32-0.39,0.59C107.67,29.31,107.88,29.47,108.12,29.47z"/>
				<path d="M112.24,15.12c1.48,1.36,2.47,3.24,2.68,5.37c0.4,4.22-2.37,8.02-6.49,8.92c0.16-0.08,0.26-0.25,0.26-0.44
					c0-0.27-0.22-0.5-0.5-0.5h-0.13c3.71-0.73,6.23-4.11,5.87-7.88c-0.36-3.74-3.45-6.57-7.21-6.65c0.28,0,0.5-0.22,0.5-0.5
					c0-0.24-0.17-0.44-0.4-0.49C109.12,13.1,110.89,13.89,112.24,15.12z"/>
				<path d="M106.64,12.94l0.18,0.01c0.23,0.05,0.4,0.25,0.4,0.49c0,0.28-0.22,0.5-0.5,0.5c-0.03,0-0.06,0-0.09,0
					c-0.27,0-0.5-0.23-0.49-0.5C106.14,13.16,106.36,12.94,106.64,12.94z"/>
				<path d="M106.63,13.94H36.81c0.27,0,0.49-0.22,0.5-0.5c0-0.27-0.23-0.5-0.5-0.5h69.83c-0.28,0-0.5,0.22-0.5,0.5
					C106.13,13.71,106.36,13.94,106.63,13.94z"/>
				<path d="M99.14,107.98c1.06,0.86,1.64,2.03,1.64,3.28c0,1.26-0.58,2.43-1.64,3.29c-0.99,0.8-2.27,1.24-3.62,1.24
					c-1.36,0-2.64-0.44-3.63-1.24c-1.06-0.86-1.64-2.03-1.64-3.29c0-1.25,0.58-2.42,1.64-3.28c0.99-0.8,2.27-1.24,3.63-1.24
					C96.87,106.74,98.15,107.18,99.14,107.98z"/>
				<path d="M98.99,61c-0.45-0.19-0.91-0.33-1.39-0.42c-0.44-0.09-0.94-0.14-1.33-0.14c0.27,0,0.5-0.22,0.5-0.5
					c0-0.26-0.21-0.48-0.47-0.5c0.44,0.01,1,0.06,1.5,0.16c0.54,0.11,1.06,0.26,1.58,0.48c0.99,0.41,1.89,1,2.66,1.76
					c1.55,1.52,2.44,3.56,2.5,5.73c0.12,4.45-3.38,8.24-7.81,8.49c0.22-0.05,0.4-0.24,0.4-0.49c0-0.28-0.23-0.5-0.5-0.5
					c3.92-0.21,7.01-3.55,6.91-7.47c-0.05-1.91-0.83-3.71-2.2-5.05C100.66,61.88,99.87,61.36,98.99,61z"/>
				<path d="M97.13,75.57c0,0.25-0.18,0.44-0.4,0.49c-0.03,0.01-0.07,0.01-0.1,0.01c-0.27,0-0.49-0.21-0.5-0.48
					c-0.02-0.27,0.2-0.51,0.47-0.52h0.03C96.9,75.07,97.13,75.29,97.13,75.57z"/>
				<path d="M54.91,59.44h41.33c-0.27,0.01-0.5,0.23-0.49,0.5H55.41C55.41,59.67,55.19,59.44,54.91,59.44z"/>
				<path d="M96.77,59.94c0,0.28-0.23,0.5-0.5,0.5H96.2c-0.25,0-0.45-0.23-0.45-0.49c0-0.01,0-0.01,0-0.01
					c-0.01-0.27,0.22-0.49,0.49-0.5h0.03c0.01,0,0.02,0,0.03,0C96.56,59.46,96.77,59.68,96.77,59.94z"/>
				<path d="M96.2,60.44H55.41v-0.5h40.34c0,0,0,0,0,0.01C95.75,60.21,95.95,60.44,96.2,60.44z"/>
				<path d="M96.63,76.07H54.91c0.28,0,0.5-0.22,0.5-0.5v-0.5H96.6c-0.27,0.01-0.49,0.25-0.47,0.52
					C96.14,75.86,96.36,76.07,96.63,76.07z"/>
				<path d="M110.64,84.44c-4.44,4.54-10.63,7.15-16.98,7.15c0.28,0,0.5-0.23,0.5-0.5c0-0.28-0.22-0.5-0.5-0.5
					c6.09,0,12.01-2.5,16.26-6.85s6.61-10.33,6.47-16.41s-2.78-11.94-7.22-16.09c-3.93-3.66-9.08-5.82-14.43-6.08
					c0.28,0,0.5-0.23,0.5-0.5c0-0.23-0.15-0.43-0.37-0.48c5.54,0.28,10.9,2.52,14.98,6.33c4.64,4.33,7.39,10.45,7.54,16.8
					C117.53,73.66,115.07,79.9,110.64,84.44z"/>
				<path d="M94.74,44.16c0.05,0,0.09,0.01,0.13,0.02c-0.16-0.02-0.32-0.03-0.48-0.02H94.74z"/>
				<path d="M94.74,45.16h-2.13C93.32,45.13,94.03,45.13,94.74,45.16z"/>
				<path d="M94.39,44.16h-1.82C93.18,44.13,93.78,44.13,94.39,44.16z"/>
				<circle cx="93.66" cy="91.09" r="0.5"/>
				<path d="M93.66,91.59H55.41v-0.5c0-0.28-0.22-0.5-0.5-0.5h38.75c-0.27,0-0.5,0.22-0.5,0.5C93.16,91.36,93.39,91.59,93.66,91.59z
					"/>
				<path d="M95.24,44.66c0,0.27-0.22,0.5-0.5,0.5c-0.71-0.03-1.42-0.03-2.13,0h-0.02c-0.27,0-0.49-0.21-0.5-0.48
					c0-0.01,0-0.01,0-0.02c0-0.27,0.21-0.49,0.48-0.5h1.82c0.16-0.01,0.32,0,0.48,0.02C95.09,44.23,95.24,44.43,95.24,44.66z"/>
				<path d="M92.59,45.16H54.91c0.28,0,0.5-0.23,0.5-0.5h36.68c0,0.01,0,0.01,0,0.02C92.1,44.95,92.32,45.16,92.59,45.16z"/>
				<path d="M55.41,44.16h37.16c-0.27,0.01-0.48,0.23-0.48,0.5H55.41V44.16z"/>
				<path d="M89.75,111.26c0-1.46,0.72-2.77,1.83-3.67c1.1-0.9,2.52-1.35,3.94-1.35c1.41,0,2.83,0.45,3.93,1.35
					c1.11,0.91,1.83,2.21,1.83,3.67c0,1.47-0.72,2.77-1.83,3.68c-1.1,0.9-2.52,1.35-3.93,1.35c-1.42,0-2.84-0.45-3.94-1.35
					C90.47,114.03,89.75,112.73,89.75,111.26z M91.89,107.98c-1.06,0.86-1.64,2.03-1.64,3.28c0,1.26,0.58,2.43,1.64,3.29
					c0.99,0.8,2.27,1.24,3.63,1.24c1.35,0,2.63-0.44,3.62-1.24c1.06-0.86,1.64-2.03,1.64-3.29c0-1.25-0.58-2.42-1.64-3.28
					c-0.99-0.8-2.27-1.24-3.62-1.24C94.16,106.74,92.88,107.18,91.89,107.98z"/>
				<path d="M89.25,111.26c0-1.53,0.73-3.01,2.01-4.06c1.16-0.94,2.67-1.46,4.26-1.46c1.58,0,3.09,0.52,4.25,1.46
					c1.28,1.05,2.01,2.53,2.01,4.06c0,1.54-0.73,3.02-2.01,4.07c-1.16,0.94-2.67,1.46-4.25,1.46c-1.59,0-3.1-0.52-4.26-1.46
					C89.98,114.28,89.25,112.8,89.25,111.26z M91.58,107.59c-1.11,0.9-1.83,2.21-1.83,3.67c0,1.47,0.72,2.77,1.83,3.68
					c1.1,0.9,2.52,1.35,3.94,1.35c1.41,0,2.83-0.45,3.93-1.35c1.11-0.91,1.83-2.21,1.83-3.68c0-1.46-0.72-2.76-1.83-3.67
					c-1.1-0.9-2.52-1.35-3.93-1.35C94.1,106.24,92.68,106.69,91.58,107.59z"/>
				<path d="M55.41,91.09v0.5h-0.5c-0.28,0-0.5-0.23-0.5-0.5c0-0.28,0.22-0.5,0.5-0.5S55.41,90.81,55.41,91.09z"/>
				<path d="M55.41,60.44v14.63h-0.5c-0.28,0-0.5,0.22-0.5,0.5V59.94c0,0.28,0.22,0.5,0.5,0.5H55.41z"/>
				<path d="M55.41,40.44v3.72h-0.5c-0.28,0-0.5,0.22-0.5,0.5v-4.27c0,0.21,0.13,0.4,0.34,0.47c0.06,0.02,0.11,0.03,0.16,0.03
					c0.21,0,0.41-0.14,0.47-0.35C55.39,40.51,55.4,40.47,55.41,40.44z"/>
				<path d="M54.41,75.57c0-0.28,0.22-0.5,0.5-0.5h0.5v0.5c0,0.28-0.22,0.5-0.5,0.5S54.41,75.85,54.41,75.57z"/>
				<path d="M54.41,109.21v-0.36c0-0.26,0.22-0.48,0.48-0.49c0.26-0.04,0.51,0.2,0.52,0.48v0.37c0,0.03,0,0.07-0.01,0.1
					c-0.05,0.23-0.25,0.4-0.49,0.4C54.63,109.71,54.41,109.49,54.41,109.21z"/>
				<path d="M54.45,40.19c0.07-0.18,0.25-0.3,0.46-0.3c0.28,0,0.5,0.22,0.5,0.5v0.05c-0.01,0.03-0.02,0.07-0.03,0.1
					c-0.06,0.21-0.26,0.35-0.47,0.35c-0.05,0-0.1-0.01-0.16-0.03c-0.21-0.07-0.34-0.26-0.34-0.47c0-0.05,0.01-0.11,0.03-0.16
					C54.44,40.22,54.44,40.21,54.45,40.19z"/>
				<path d="M54.91,45.16c-0.28,0-0.5-0.23-0.5-0.5c0-0.28,0.22-0.5,0.5-0.5h0.5v0.5C55.41,44.93,55.19,45.16,54.91,45.16z"/>
				<path d="M54.91,60.44c-0.28,0-0.5-0.22-0.5-0.5c0-0.27,0.22-0.5,0.5-0.5s0.5,0.23,0.5,0.5v0.5H54.91z"/>
				<path d="M54.91,91.59h0.5v17.25c-0.01-0.28-0.26-0.52-0.52-0.48c-0.26,0.01-0.48,0.23-0.48,0.49V91.09
					C54.41,91.36,54.63,91.59,54.91,91.59z"/>
				<path d="M54.44,40.23c-0.02,0.05-0.03,0.11-0.03,0.16C54.41,40.33,54.42,40.28,54.44,40.23z"/>
				<path d="M40.68,37.26c-0.55,0.67-0.84,1.38-0.84,2.12c-0.02-0.26-0.24-0.46-0.5-0.46c-0.27,0-0.48,0.2-0.5,0.46
					c0-0.97,0.37-1.92,1.08-2.76c0.58-0.69,1.35-1.28,2.31-1.76c1.58-0.79,3.55-1.18,5.52-1.11c2.05,0.08,3.97,0.65,5.41,1.61
					c0.91,0.61,1.58,1.34,1.99,2.16c0.47,0.94,0.56,1.95,0.26,2.92v-0.05c0-0.28-0.22-0.5-0.5-0.5c-0.21,0-0.39,0.12-0.46,0.3
					c0.23-0.74,0.16-1.5-0.19-2.22c-0.33-0.67-0.89-1.27-1.66-1.78c-1.29-0.86-3.02-1.37-4.89-1.44c-1.81-0.06-3.6,0.29-5.04,1.01
					C41.84,36.17,41.17,36.68,40.68,37.26z"/>
				<path d="M39.34,109.68c0.27,0,0.5-0.23,0.5-0.5c0.01,1.92,0.77,3.73,2.14,5.1c1.4,1.39,3.28,2.16,5.24,2.12
					c1.97-0.02,3.81-0.82,5.18-2.25c1.28-1.35,1.99-3.08,2.01-4.94c0,0.28,0.22,0.5,0.5,0.5c0.24,0,0.44-0.17,0.49-0.4
					c-0.04,2.07-0.84,4.01-2.28,5.53c-1.55,1.62-3.64,2.53-5.89,2.56c-0.04,0-0.07,0-0.11,0c-2.2,0-4.28-0.85-5.84-2.42
					c-1.56-1.55-2.42-3.6-2.44-5.78C38.85,109.46,39.07,109.68,39.34,109.68z"/>
				<path d="M39.84,60.07v15.5c0-0.28-0.23-0.5-0.5-0.5h-0.5V60.62c0.19-0.02,0.37-0.04,0.56-0.06
					C39.65,60.53,39.83,60.32,39.84,60.07z"/>
				<path d="M39.84,60.01c0,0.02,0,0.04,0,0.05c0-0.03,0-0.06-0.01-0.08C39.84,59.99,39.84,60,39.84,60.01z"/>
				<path d="M39.84,39.42v5.24c0-0.28-0.23-0.5-0.5-0.5h-0.5v-4.74c0,0.28,0.22,0.5,0.5,0.5S39.84,39.69,39.84,39.42z"/>
				<path d="M39.83,59.98c0.01,0.02,0.01,0.05,0.01,0.08v0.01c-0.01,0.25-0.19,0.46-0.44,0.49c-0.19,0.02-0.37,0.04-0.56,0.06v-0.55
					c0-0.28,0.22-0.5,0.5-0.5c0.05,0,0.1,0.01,0.15,0.03c0.02,0,0.03,0,0.04,0.01c0.04,0.02,0.08,0.04,0.12,0.07
					c0.01,0.01,0.03,0.02,0.04,0.04c0.04,0.03,0.07,0.08,0.1,0.13c0.02,0.04,0.03,0.08,0.04,0.12
					C39.83,59.97,39.83,59.97,39.83,59.98z"/>
				<path d="M39.84,39.42c0,0.27-0.22,0.5-0.5,0.5s-0.5-0.22-0.5-0.5c0-0.01,0-0.03,0-0.04c0.02-0.26,0.23-0.46,0.5-0.46
					c0.26,0,0.48,0.2,0.5,0.46C39.84,39.39,39.84,39.41,39.84,39.42z"/>
				<path d="M39.84,75.57c0,0.28-0.23,0.5-0.5,0.5c-0.28,0-0.5-0.22-0.5-0.5v-0.5h0.5C39.61,75.07,39.84,75.29,39.84,75.57z"/>
				<path d="M39.83,59.97c-0.01-0.04-0.02-0.08-0.04-0.12C39.81,59.89,39.82,59.93,39.83,59.97z"/>
				<path d="M39.69,59.72c-0.01-0.02-0.03-0.03-0.04-0.04C39.66,59.69,39.68,59.7,39.69,59.72z"/>
				<path d="M39.84,109.06v0.12c0,0.27-0.23,0.5-0.5,0.5s-0.49-0.22-0.5-0.48c0-0.01,0-0.01,0-0.02v-0.13c0-0.28,0.22-0.5,0.5-0.5
					S39.84,108.78,39.84,109.06z"/>
				<path d="M39.65,59.68c-0.04-0.03-0.08-0.05-0.12-0.07C39.57,59.63,39.61,59.65,39.65,59.68z"/>
				<path d="M39.49,59.6c-0.05-0.02-0.1-0.03-0.15-0.03C39.39,59.57,39.44,59.58,39.49,59.6z"/>
				<path d="M39.84,44.66c0,0.27-0.23,0.5-0.5,0.5c-0.28,0-0.5-0.23-0.5-0.5v-0.5h0.5C39.61,44.16,39.84,44.38,39.84,44.66z"/>
				<path d="M39.34,90.59c0.27,0,0.5,0.22,0.5,0.5c0,0.27-0.23,0.5-0.5,0.5h-0.5v-0.5C38.84,90.81,39.06,90.59,39.34,90.59z"/>
				<path d="M38.84,75.57c0,0.28,0.22,0.5,0.5,0.5H21.68c0.25,0,0.46-0.22,0.48-0.47c0.01-0.28-0.2-0.51-0.47-0.53h17.15V75.57z"/>
				<path d="M39.34,91.59c0.27,0,0.5-0.23,0.5-0.5v17.97c0-0.28-0.22-0.51-0.5-0.51s-0.5,0.22-0.5,0.5V91.59H39.34z"/>
				<path d="M38.84,44.66c0,0.27,0.22,0.5,0.5,0.5h-2.86c0.28,0,0.52-0.22,0.52-0.51c0-0.27-0.22-0.49-0.5-0.49h2.34V44.66z"/>
				<path d="M36.66,13.94c-0.05,0-0.1,0-0.15,0c-0.28,0-0.5-0.22-0.5-0.5c0-0.24,0.17-0.44,0.4-0.49c0.08-0.01,0.17-0.01,0.25-0.01
					c0.05,0,0.1,0,0.15,0c0.27,0,0.5,0.23,0.5,0.5c-0.01,0.28-0.23,0.5-0.5,0.5C36.78,13.95,36.71,13.94,36.66,13.94z"/>
				<path d="M36.5,44.16c0.28,0,0.5,0.22,0.5,0.49c0,0.29-0.24,0.51-0.52,0.51h-0.02h-0.01c-0.28-0.01-0.49-0.23-0.49-0.5
					c0-0.28,0.22-0.5,0.5-0.5H36.5z"/>
				<path d="M36.45,29.47c-0.28,0-0.5-0.22-0.5-0.5c0-0.26,0.2-0.48,0.47-0.5c0.01,0,0.02,0,0.03,0h0.07c0.27,0,0.49,0.23,0.49,0.51
					c0,0.27-0.22,0.49-0.5,0.49H36.45z"/>
				<path d="M33.71,30.03c-0.89,0.38-1.69,0.91-2.37,1.6c-1.38,1.39-2.14,3.23-2.15,5.19c0,1.96,0.76,3.8,2.13,5.19
					c1.36,1.36,3.23,2.14,5.14,2.15c-0.28,0-0.5,0.22-0.5,0.5c0,0.27,0.21,0.49,0.49,0.5c-2.17-0.01-4.3-0.9-5.83-2.45
					c-1.57-1.57-2.43-3.67-2.43-5.89c0.01-2.23,0.87-4.32,2.44-5.9c0.77-0.78,1.68-1.39,2.69-1.81c0.98-0.41,2.09-0.63,3.1-0.64
					c-0.27,0.02-0.47,0.24-0.47,0.5c0,0.28,0.22,0.5,0.5,0.5C35.54,29.47,34.58,29.67,33.71,30.03z"/>
				<path d="M21.5,90.59h17.84c-0.28,0-0.5,0.22-0.5,0.5v0.5H21.51c0.28-0.01,0.5-0.25,0.48-0.52C21.98,90.8,21.77,90.59,21.5,90.59
					z"/>
				<path d="M21.63,75.07h-0.61C21.22,75.05,21.42,75.06,21.63,75.07z"/>
				<path d="M21.63,76.07h-0.64C21.2,76.06,21.41,76.06,21.63,76.07z"/>
				<path d="M21.24,91.59h-0.22c-0.02,0-0.03,0-0.05-0.01C21.06,91.59,21.15,91.59,21.24,91.59z"/>
				<path d="M21.24,90.59h0.26c0.27,0,0.48,0.21,0.49,0.48c0.02,0.27-0.2,0.51-0.48,0.52h-0.27c-0.09,0-0.18,0-0.27-0.01
					c-0.03,0-0.05,0-0.08-0.01c-0.22-0.06-0.37-0.25-0.37-0.48c0-0.28,0.22-0.5,0.5-0.5H21.24z"/>
				<path d="M21.02,75.07c-0.09-0.01-0.18,0-0.26,0.01c0.02-0.01,0.03-0.01,0.05-0.01H21.02z"/>
				<path d="M20.89,91.57c0.03,0.01,0.05,0.01,0.08,0.01C20.94,91.58,20.91,91.58,20.89,91.57z"/>
				<path d="M20.81,76.07c-0.28,0-0.5-0.22-0.5-0.5c0-0.24,0.16-0.43,0.38-0.48c0.02-0.02,0.04-0.02,0.07-0.01
					c0.08-0.01,0.17-0.02,0.26-0.01h0.61h0.06c0.27,0.02,0.48,0.25,0.47,0.53c-0.02,0.25-0.23,0.47-0.48,0.47h-0.05
					c-0.22-0.01-0.43-0.01-0.64,0H20.81z"/>
				<path d="M20.76,75.08c-0.03-0.01-0.05-0.01-0.07,0.01C20.71,75.08,20.73,75.07,20.76,75.08z"/>
				<path d="M20.31,75.57c0,0.28,0.22,0.5,0.5,0.5h0.18c-1.76,0.05-3.42,0.73-4.72,1.95c-1.45,1.37-2.27,3.22-2.28,5.22
					c-0.02,1.97,0.78,3.88,2.18,5.26c0.71,0.69,1.53,1.23,2.44,1.59c0.84,0.33,1.76,0.5,2.63,0.5h-0.22c-0.28,0-0.5,0.22-0.5,0.5
					c0,0.23,0.15,0.42,0.37,0.48c-0.88-0.03-1.8-0.22-2.64-0.55c-1.04-0.41-1.98-1.02-2.78-1.8c-1.6-1.57-2.5-3.75-2.48-5.99
					c0.02-2.27,0.94-4.38,2.6-5.94c1.41-1.33,3.19-2.1,5.1-2.2C20.47,75.14,20.31,75.33,20.31,75.57z"/>
				<path d="M36.51,13.94c-6.18,0.04-12.14,2.62-16.42,7.1c-4.34,4.55-6.63,10.76-6.29,17.03c0.34,6.28,3.29,12.2,8.1,16.26
					c4.8,4.05,11.14,5.96,17.38,5.24c0.02,0,0.04,0,0.06,0c-0.28,0-0.5,0.22-0.5,0.5v0.55c-0.72,0.07-1.44,0.1-2.16,0.1
					c-5.6,0-11.11-1.99-15.43-5.63c-5.01-4.23-8.09-10.41-8.44-16.96c-0.36-6.55,2.03-13.03,6.56-17.78
					c4.43-4.65,10.62-7.34,17.04-7.4c-0.23,0.05-0.4,0.25-0.4,0.49C36.01,13.72,36.23,13.94,36.51,13.94z"/>
				<path d="M124.94,3.09c-39.86,0-79.72,0-119.58,0C4.14,3.21,3.18,4.2,3.09,5.42c0,39.8,0,79.59,0,119.39
					c0.02,0.66,0.29,1.3,0.76,1.77c0.5,0.5,1.19,0.77,1.9,0.75c39.75,0,79.5,0,119.25,0c1.2-0.11,2.16-1.02,2.34-2.22
					c0-39.9,0-79.8,0-119.71C127.2,4.15,126.19,3.18,124.94,3.09z M0.51,5.35C0.63,2.76,2.67,0.68,5.25,0.5
					c39.92,0,79.85,0,119.77,0c2.6,0.13,4.71,2.18,4.91,4.79c0,39.99,0,79.98,0,119.98c-0.26,2.52-2.3,4.49-4.83,4.65
					c-39.78,0-79.55,0-119.33,0c-2.93,0.05-5.31-2.33-5.26-5.26C0.51,84.89,0.51,45.12,0.51,5.35z"/>
			</g>
			<g>
				<path class="st0" d="M0.51,124.66c0-39.77,0-79.54,0-119.31C0.63,2.76,2.67,0.68,5.25,0.5c39.92,0,79.85,0,119.77,0
					c2.6,0.13,4.71,2.18,4.91,4.79c0,39.99,0,79.98,0,119.98c-0.26,2.52-2.3,4.49-4.83,4.65c-39.78,0-79.55,0-119.33,0
					C2.84,129.97,0.46,127.59,0.51,124.66z"/>
				<path class="st0" d="M3.09,124.81c0.02,0.66,0.29,1.3,0.76,1.77c0.5,0.5,1.19,0.77,1.9,0.75c39.75,0,79.5,0,119.25,0
					c1.2-0.11,2.16-1.02,2.34-2.22c0-39.9,0-79.8,0-119.71c-0.14-1.25-1.15-2.22-2.4-2.31c-39.86,0-79.72,0-119.58,0
					C4.14,3.21,3.18,4.2,3.09,5.42C3.09,45.22,3.09,85.01,3.09,124.81z"/>
			</g>
		</g>
	</g>
</g>
</svg>
